<?xml version="1.0" encoding="UTF-8" standalone="no"?>
<!DOCTYPE svg PUBLIC "-//W3C//DTD SVG 1.1//EN"
 "http://www.w3.org/Graphics/SVG/1.1/DTD/svg11.dtd">
<!-- Generated by graphviz version 2.38.0 (20140413.2041)
 -->
<!-- Title: classes Pages: 1 -->
<svg width="293pt" height="260pt"
 viewBox="0.00 0.00 292.69 260.00" xmlns="http://www.w3.org/2000/svg" xmlns:xlink="http://www.w3.org/1999/xlink">
<g id="graph0" class="graph" transform="scale(1 1) rotate(0) translate(4 256)">
<title>classes</title>
<polygon fill="white" stroke="none" points="-4,4 -4,-256 288.693,-256 288.693,4 -4,4"/>
<!-- Eq -->
<g id="node1" class="node"><title>Eq</title>
<ellipse fill="none" stroke="black" cx="178.146" cy="-234" rx="27" ry="18"/>
<text text-anchor="middle" x="178.146" y="-230.3" font-family="sans" font-size="14.00">Eq</text>
</g>
<!-- Ord -->
<g id="node2" class="node"><title>Ord</title>
<ellipse fill="none" stroke="black" cx="105.146" cy="-162" rx="27.0966" ry="18"/>
<text text-anchor="middle" x="105.146" y="-158.3" font-family="sans" font-size="14.00">Ord</text>
</g>
<!-- Eq&#45;&gt;Ord -->
<g id="edge1" class="edge"><title>Eq&#45;&gt;Ord</title>
<path fill="none" stroke="black" d="M163.373,-218.834C153.052,-208.938 139.087,-195.546 127.42,-184.359"/>
<polygon fill="black" stroke="black" points="129.787,-181.78 120.147,-177.385 124.943,-186.832 129.787,-181.78"/>
</g>
<!-- Bits -->
<g id="node3" class="node"><title>Bits</title>
<ellipse fill="none" stroke="black" cx="178.146" cy="-162" rx="27.8951" ry="18"/>
<text text-anchor="middle" x="178.146" y="-158.3" font-family="sans" font-size="14.00">Bits</text>
</g>
<!-- Eq&#45;&gt;Bits -->
<g id="edge2" class="edge"><title>Eq&#45;&gt;Bits</title>
<path fill="none" stroke="black" d="M178.146,-215.697C178.146,-207.983 178.146,-198.712 178.146,-190.112"/>
<polygon fill="black" stroke="black" points="181.646,-190.104 178.146,-180.104 174.646,-190.104 181.646,-190.104"/>
</g>
<!-- Bool -->
<g id="node4" class="node"><title>Bool</title>
<ellipse fill="none" stroke="black" cx="254.146" cy="-162" rx="30.5947" ry="18"/>
<text text-anchor="middle" x="254.146" y="-158.3" font-family="sans" font-size="14.00">Bool</text>
</g>
<!-- Eq&#45;&gt;Bool -->
<g id="edge3" class="edge"><title>Eq&#45;&gt;Bool</title>
<path fill="none" stroke="black" d="M193.526,-218.834C204.2,-209.003 218.618,-195.723 230.714,-184.582"/>
<polygon fill="black" stroke="black" points="233.282,-186.976 238.266,-177.626 228.539,-181.827 233.282,-186.976"/>
</g>
<!-- Num -->
<g id="node5" class="node"><title>Num</title>
<ellipse fill="none" stroke="black" cx="105.146" cy="-90" rx="31.6951" ry="18"/>
<text text-anchor="middle" x="105.146" y="-86.3" font-family="sans" font-size="14.00">Num</text>
</g>
<!-- Ord&#45;&gt;Num -->
<g id="edge4" class="edge"><title>Ord&#45;&gt;Num</title>
<path fill="none" stroke="black" d="M105.146,-143.697C105.146,-135.983 105.146,-126.712 105.146,-118.112"/>
<polygon fill="black" stroke="black" points="108.646,-118.104 105.146,-108.104 101.646,-118.104 108.646,-118.104"/>
</g>
<!-- Integral -->
<g id="node6" class="node"><title>Integral</title>
<ellipse fill="none" stroke="black" cx="46.1459" cy="-18" rx="46.2923" ry="18"/>
<text text-anchor="middle" x="46.1459" y="-14.3" font-family="sans" font-size="14.00">Integral</text>
</g>
<!-- Num&#45;&gt;Integral -->
<g id="edge5" class="edge"><title>Num&#45;&gt;Integral</title>
<path fill="none" stroke="black" d="M92.0519,-73.4647C84.5513,-64.5657 74.9759,-53.2051 66.513,-43.1644"/>
<polygon fill="black" stroke="black" points="69.1463,-40.8578 60.0254,-35.4672 63.7939,-45.3691 69.1463,-40.8578"/>
</g>
<!-- Fractional -->
<g id="node7" class="node"><title>Fractional</title>
<ellipse fill="none" stroke="black" cx="165.146" cy="-18" rx="54.6905" ry="18"/>
<text text-anchor="middle" x="165.146" y="-14.3" font-family="sans" font-size="14.00">Fractional</text>
</g>
<!-- Num&#45;&gt;Fractional -->
<g id="edge6" class="edge"><title>Num&#45;&gt;Fractional</title>
<path fill="none" stroke="black" d="M118.462,-73.4647C126.09,-64.5657 135.827,-53.2051 144.434,-43.1644"/>
<polygon fill="black" stroke="black" points="147.181,-45.3376 151.031,-35.4672 141.866,-40.782 147.181,-45.3376"/>
</g>
</g>
</svg>
